# xmcd
#
# Track frame offsets: 
#        150
#        12412
#        23700
#        35275
#        46562
#        60750
#        71787
#        83887
#        98500
#        110887
#        128550
#        141800
#        149900
#        160950
#        171425
#        183050
#        193212
#        206662
#        220562
#        233787
#
# Disc length: 3264 seconds
#
# Revision: 0
# Processed by: cddbd v1.5.2PL0 Copyright (c) Steve Scherf et al.
# Submitted via: ExactAudioCopy v1.1
#
DISCID=150cbe14
DTITLE=Various Artist - 多一點精選集（六）：情迷 A-Go-Go
DYEAR=1996
DGENRE=Blues
TTITLE0=薛家燕 - 好女兒
TTITLE1=蕭芳芳 - 問我
TTITLE2=蕭芳芳 - 泥娃娃
TTITLE3=四朵金花 - 四朵金花
TTITLE4=森森 - 一水隔天涯
TTITLE5=陳齊頌 - 情花開
TTITLE6=陳浩德 - 分飛燕
TTITLE7=廖小璇 - 痴情淚
TTITLE8=陳寶珠 - 我們同歌唱
TTITLE9=薛家燕 - 送君去後
TTITLE10=甄秀儀 - 新荷花香
TTITLE11=森森 - 夜香港
TTITLE12=甄秀儀、櫻花 - 香港靚女多
TTITLE13=甄秀儀、陳浩德 - 俏大姐
TTITLE14=蕭芳芳 - 林亞珍
TTITLE15=蕭芳芳 - 亞珍o既錯
TTITLE16=森森 - 悲秋風
TTITLE17=蕭芳芳 - 初戀
TTITLE18=陳寶珠 - 傷逝
TTITLE19=薛家燕 - 四季戀歌
EXTD=
EXTT0=
EXTT1=
EXTT2=
EXTT3=
EXTT4=
EXTT5=
EXTT6=
EXTT7=
EXTT8=
EXTT9=
EXTT10=
EXTT11=
EXTT12=
EXTT13=
EXTT14=
EXTT15=
EXTT16=
EXTT17=
EXTT18=
EXTT19=
PLAYORDER=
